# xmcd
#
# Track frame offsets: 
#        150
#        18620
#        34760
#        50445
#        67645
#        81998
#        100140
#        123485
#        145008
#        160878
#        179465
#
# Disc length: 2679 seconds
#
# Revision: 2
# Processed by: cddbd v1.5.2PL0 Copyright (c) Steve Scherf et al.
# Submitted via: ExactAudioCopy v0.99pb4
#
DISCID=8c0a750b
DTITLE=Restless Heart - Big Dreams In A Small Town
DYEAR=1988
DGENRE=
TTITLE0=Say What's In Your Heart
TTITLE1=Big Dreams In A Small Town
TTITLE2=A Tender Lie
TTITLE3=Jenny Come Back
TTITLE4=No Way Out
TTITLE5=Carved In Stone
TTITLE6=Eldorado
TTITLE7=The Bluest Eyes In Texas
TTITLE8=This Time
TTITLE9=Calm Before The Storm
TTITLE10=The Ride Of Your Life
EXTD=
EXTT0=
EXTT1=
EXTT2=
EXTT3=
EXTT4=
EXTT5=
EXTT6=
EXTT7=
EXTT8=
EXTT9=
EXTT10=
PLAYORDER=
